<svg xmlns="http://www.w3.org/2000/svg" viewBox="0 0 24 24" fill="none">
  <rect x="2" y="6" width="20" height="12" rx="3" fill="#FFC1CC" stroke="#3A2C5A" stroke-width="1.2"/>
  <rect x="6" y="8" width="7" height="5" rx="1" fill="#FFD966" stroke="#3A2C5A" stroke-width="1"/>
  <circle cx="8.5" cy="10.5" r="0.8" fill="#3A2C5A"/>
  <circle cx="11.5" cy="10.5" r="0.8" fill="#3A2C5A"/>
  <path d="M9.5 12.3c.6.6 1.4.6 2 0" stroke="#3A2C5A" stroke-width="0.8" stroke-linecap="round"/>
  <path d="M2 12.5h-1.5M23.5 12.5H22" stroke="#F26D8A" stroke-width="1.2" stroke-linecap="round"/>
  <path d="M4 12.5h3" stroke="#FF4D4D" stroke-width="1.2" stroke-linecap="round"/>
  <path d="M7.5 12.5h3" stroke="#FF9136" stroke-width="1.2" stroke-linecap="round"/>
  <path d="M11 12.5h3" stroke="#FFD966" stroke-width="1.2" stroke-linecap="round"/>
  <path d="M14.5 12.5h3" stroke="#6DD17A" stroke-width="1.2" stroke-linecap="round"/>
  <path d="M18 12.5h3" stroke="#4F9CFF" stroke-width="1.2" stroke-linecap="round"/>
  <path d="M21.5 12.5h2" stroke="#8A63FF" stroke-width="1.2" stroke-linecap="round"/>
  <path d="M6 6l-1.4-2M18 6l1.4-2" stroke="#3A2C5A" stroke-width="1" stroke-linecap="round"/>
  <path d="M6 18l-1.4 2M18 18l1.4 2" stroke="#3A2C5A" stroke-width="1" stroke-linecap="round"/>
</svg>

